<?xml version="1.0" standalone="no"?>
<!DOCTYPE svg PUBLIC "-//W3C//DTD SVG 20010904//EN"
 "http://www.w3.org/TR/2001/REC-SVG-20010904/DTD/svg10.dtd">
<svg version="1.0" xmlns="http://www.w3.org/2000/svg"
 width="1280.000000pt" height="853.000000pt" viewBox="0 0 1280.000000 853.000000"
 preserveAspectRatio="xMidYMid meet">
<metadata>
Created by potrace 1.15, written by Peter Selinger 2001-2017
</metadata>
<g transform="translate(0.000000,853.000000) scale(0.100000,-0.100000)"
fill="#e2a889" stroke="none">
<path d="M830 8355 l0 -174 -32 -17 c-45 -23 -122 -98 -158 -153 -159 -248
-65 -585 200 -714 94 -46 188 -62 280 -48 126 20 192 52 283 140 88 85 130
171 152 314 l6 37 589 0 590 0 0 -320 0 -320 -39 0 c-22 0 -66 13 -103 30 -79
37 -166 54 -234 45 -35 -4 -54 -2 -59 5 -4 7 -31 23 -59 36 -129 60 -278 8
-343 -120 -45 -87 -33 -206 30 -284 6 -7 9 -44 8 -83 -6 -175 100 -349 257
-424 l62 -29 0 -58 0 -58 -1130 0 -1130 0 0 -65 0 -65 260 -2 260 -3 -55 -42
c-60 -47 -145 -154 -145 -183 0 -23 26 -50 47 -50 8 0 27 14 42 31 116 136
166 175 278 216 220 80 491 -7 614 -197 25 -39 38 -50 59 -50 32 0 50 17 50
46 0 30 -79 133 -137 179 -27 21 -52 42 -58 47 -5 4 228 8 518 8 l527 0 0
-1095 0 -1095 -135 0 c-190 0 -175 28 -175 -319 l0 -280 26 -20 c24 -19 40
-21 156 -21 l128 0 -2 -257 -3 -258 -402 -5 c-386 -5 -403 -6 -429 -26 -15
-11 -37 -33 -48 -48 -20 -26 -21 -42 -24 -362 l-3 -334 -209 0 -210 0 0 1070
0 1070 50 0 50 0 0 70 c0 54 -3 70 -14 70 -9 0 -21 22 -31 56 -9 31 -15 57
-13 58 141 65 210 126 256 224 22 49 27 74 30 178 l4 121 -27 21 c-34 27 -59
28 -83 4 -15 -15 -20 -40 -24 -119 -7 -117 -32 -187 -85 -234 -37 -32 -99 -66
-107 -58 -3 3 -8 23 -11 44 -5 39 -4 41 37 61 48 23 83 67 99 126 6 25 9 139
7 302 l-3 263 -30 48 c-72 117 -229 127 -322 21 -18 -20 -36 -49 -40 -64 -14
-49 -10 -553 5 -594 14 -39 92 -118 117 -118 18 0 18 -4 5 -52 -10 -35 -12
-37 -37 -27 -48 18 -101 69 -127 121 -23 45 -26 65 -26 150 0 92 -2 101 -25
123 -31 32 -59 32 -92 -1 -25 -25 -26 -27 -21 -140 5 -107 8 -120 42 -189 42
-86 112 -153 192 -186 l51 -21 -15 -59 c-9 -36 -20 -59 -28 -59 -11 0 -14 -17
-14 -70 l0 -70 50 0 50 0 0 -1070 0 -1070 -400 0 -400 0 0 -65 0 -65 192 0
191 0 -71 -74 c-197 -203 -214 -498 -42 -721 36 -46 136 -133 144 -124 2 2 9
35 15 73 l10 69 -41 46 c-64 73 -99 157 -105 255 -6 81 -5 83 22 104 20 16 23
22 11 22 -23 0 -20 23 10 82 37 72 112 143 191 181 91 42 208 49 298 18 33
-11 68 -30 77 -42 10 -11 21 -18 26 -15 5 3 33 -19 61 -49 151 -160 155 -393
8 -552 -36 -40 -42 -52 -36 -73 4 -14 7 -49 8 -78 l1 -53 44 30 c121 84 226
266 226 393 l0 38 55 0 55 0 0 -655 0 -655 65 0 65 0 0 655 0 655 750 0 750 0
0 -160 c0 -157 0 -160 23 -164 12 -3 94 -14 182 -26 88 -11 170 -23 183 -25
l22 -5 0 195 0 195 -200 0 -200 0 0 35 0 35 200 0 200 0 0 196 0 196 -32 -5
c-18 -3 -111 -16 -205 -29 l-173 -22 0 -123 0 -123 -750 0 -750 0 0 150 0 150
391 0 c385 0 392 0 431 22 21 12 49 38 61 58 21 34 22 44 24 365 l3 330 879 3
879 2 4 -167 c4 -179 10 -204 60 -250 44 -41 65 -43 460 -43 l380 0 -31 -35
c-40 -46 -40 -83 -1 -140 16 -24 30 -50 30 -59 0 -25 -27 -43 -74 -50 -24 -4
-56 -16 -70 -27 -24 -19 -26 -27 -26 -95 0 -91 13 -108 99 -125 64 -12 79 -28
66 -69 -6 -20 -15 -20 -526 -20 l-519 0 0 195 0 196 -32 -6 c-18 -3 -127 -19
-243 -35 -115 -17 -222 -33 -237 -36 l-28 -6 0 -199 0 -199 265 0 265 0 0 -35
0 -35 -265 0 -265 0 0 -198 0 -199 258 -36 c141 -20 263 -37 269 -37 10 0 13
55 15 227 l3 228 514 3 513 2 34 -30 c19 -16 42 -30 52 -30 9 0 41 16 71 36
74 50 96 43 111 -34 20 -96 27 -102 125 -102 98 0 105 6 125 102 15 75 38 84
103 39 75 -51 88 -50 150 8 51 49 57 51 108 51 30 0 60 -5 67 -12 9 -9 12
-122 12 -445 l0 -433 -1177 -2 -1178 -3 -34 -24 c-60 -43 -71 -84 -71 -268 l0
-163 65 0 65 0 2 163 3 162 1165 3 1165 2 -3 -165 -3 -165 66 0 65 0 0 165 0
165 1015 0 1015 0 0 -165 0 -165 65 0 65 0 0 164 0 164 228 4 c228 3 229 3
269 30 77 51 78 60 75 421 l-3 317 250 0 251 0 0 -550 0 -550 65 0 65 0 0 550
0 550 695 0 695 0 0 -321 c0 -362 1 -370 73 -417 l41 -27 908 -3 908 -2 0 65
0 65 -888 0 c-677 0 -891 3 -900 12 -9 9 -12 94 -12 320 l0 308 210 0 210 0 0
-116 c0 -110 8 -149 34 -166 6 -4 238 -8 516 -8 278 0 510 4 516 8 26 17 34
56 34 166 l0 116 140 0 140 0 0 65 0 65 -140 0 -140 0 0 140 c0 136 -1 142
-25 165 -23 24 -29 25 -154 25 l-129 0 -16 47 c-29 84 -25 83 -226 83 -201 0
-197 1 -226 -83 l-16 -47 -129 0 c-125 0 -131 -1 -154 -25 -24 -23 -25 -29
-25 -165 l0 -140 -210 0 -210 0 0 930 0 930 45 0 c45 0 45 1 38 28 -3 15 -39
155 -78 312 -70 276 -72 284 -83 245 -24 -87 -142 -565 -142 -575 0 -5 20 -10
45 -10 l45 0 0 -930 0 -930 -695 0 -695 0 0 433 c0 434 0 434 -23 477 -16 30
-37 51 -67 67 -42 22 -52 23 -292 23 l-248 0 0 100 0 100 80 0 c164 0 291 50
400 160 68 68 129 172 145 247 l7 33 275 0 c260 0 277 1 312 21 20 11 45 32
56 47 19 26 20 45 23 590 1 309 6 562 11 562 4 0 34 -9 66 -20 32 -11 71 -20
87 -20 70 0 143 54 224 166 39 55 100 172 92 179 -2 1 -14 8 -28 15 -43 22
-94 67 -113 99 l-18 31 220 0 221 0 0 -38 c0 -21 2 -41 5 -44 3 -3 83 14 178
38 95 24 178 44 185 44 9 0 12 -112 12 -529 l0 -528 23 -33 c12 -18 35 -43 50
-54 28 -21 36 -21 607 -21 571 0 579 0 607 21 15 11 38 36 51 54 l22 33 0 564
c0 624 1 609 -64 656 l-31 22 -573 3 c-516 2 -576 1 -608 -14 -19 -9 -39 -25
-44 -34 -9 -17 -23 -14 -202 31 -106 27 -199 49 -205 49 -9 0 -13 -16 -13 -45
l0 -45 -236 0 -236 0 7 33 c12 60 46 116 98 163 l52 46 -40 35 c-22 20 -60 45
-85 56 -75 34 -216 35 -304 1 -13 -5 -16 0 -16 24 0 25 7 34 44 56 85 49 146
148 146 234 0 33 -1 33 -32 27 -18 -4 -58 -19 -88 -33 -30 -15 -58 -29 -63
-30 -4 -2 -6 52 -5 120 l3 123 665 0 665 0 3 -42 c2 -24 6 -43 10 -43 4 0 32
7 62 15 30 8 58 15 62 15 3 0 6 -50 7 -111 0 -129 9 -149 72 -149 29 0 42 6
58 26 18 23 21 41 21 130 l0 104 65 0 65 0 0 -104 c0 -89 3 -107 21 -130 16
-20 29 -26 59 -26 60 0 70 22 70 152 l0 108 44 0 c28 0 52 7 67 19 24 19 24
23 27 225 l3 206 25 0 24 0 0 -117 c1 -127 6 -144 54 -163 31 -11 79 7 90 35
3 9 6 68 6 131 l0 114 200 0 200 0 0 65 0 65 -199 0 -199 0 -6 26 c-7 27 -59
56 -85 46 -24 -8 -61 -44 -61 -59 0 -7 -11 -13 -24 -13 -21 0 -25 5 -28 38
l-3 37 -350 0 -350 0 -3 -37 c-3 -31 -7 -38 -25 -38 -14 0 -28 11 -39 30 -10
17 -28 34 -40 39 -34 12 -79 -7 -92 -40 l-10 -29 -402 0 -402 0 -4 25 -5 25
168 0 168 0 35 31 c40 35 53 79 36 124 -6 17 -61 81 -123 143 -115 115 -149
134 -162 91 -6 -17 14 -42 109 -138 64 -65 116 -122 116 -127 0 -21 -33 -54
-53 -54 -15 0 -58 36 -132 110 -113 114 -147 132 -160 89 -6 -18 9 -38 81
-111 l89 -90 -190 4 c-186 3 -190 2 -193 -18 -4 -29 20 -45 79 -53 77 -9 85
-29 30 -85 -28 -29 -58 -48 -88 -56 l-44 -13 -43 42 c-52 51 -81 52 -81 4 0
-28 -2 -30 -24 -22 -13 6 -28 12 -34 16 -5 3 187 202 428 443 306 306 436 442
434 455 -2 10 -12 23 -22 29 -15 9 -78 -50 -460 -429 l-442 -440 -722 3 -723
2 0 80 0 80 -100 0 -100 0 0 -80 0 -80 -35 0 -35 0 0 80 0 80 -106 0 -105 0 3
33 3 32 103 3 102 3 0 99 0 100 35 0 35 0 0 -100 0 -100 100 0 100 0 0 64 c0
76 -11 110 -48 150 -49 52 -71 56 -327 56 l-235 0 0 600 0 600 305 0 305 0 0
-125 0 -125 543 0 c299 0 546 2 548 4 2 2 3 164 1 360 l-2 356 -545 0 -545 0
0 -170 0 -170 -305 0 -305 0 0 325 0 325 -65 0 -65 0 0 -325 0 -325 -175 0
-175 0 0 124 c0 69 -4 136 -10 150 -5 14 -24 35 -42 46 -32 20 -47 20 -506 18
l-474 -3 -29 -33 -29 -32 0 -471 c0 -505 0 -510 52 -537 12 -6 46 -13 73 -14
l50 -3 3 -2202 c2 -2195 2 -2203 -18 -2223 -20 -20 -30 -20 -1133 -18 l-1112
3 -3 743 -2 742 550 0 550 0 0 -45 0 -45 75 0 76 0 155 -115 c85 -63 163 -115
174 -115 20 0 20 8 20 400 0 381 -1 400 -18 400 -10 0 -88 -52 -172 -115
l-153 -115 -79 0 -78 0 0 -60 0 -60 -550 0 -550 0 0 215 0 215 213 0 c117 0
229 5 250 11 47 13 106 63 123 106 20 47 20 819 0 866 -18 44 -77 94 -126 107
-27 7 -173 10 -433 8 -438 -3 -428 -2 -484 -75 l-28 -36 -3 -426 c-3 -482 -5
-468 77 -526 41 -29 48 -30 162 -34 l119 -3 0 -214 0 -214 -245 0 -245 0 -2
878 -3 877 -24 34 c-48 68 -67 71 -433 71 l-328 0 0 62 c0 46 7 74 27 116 20
42 27 70 27 118 0 48 -6 74 -27 114 -26 50 -27 57 -27 226 l0 174 790 0 790 0
0 -181 c0 -203 6 -227 74 -268 33 -21 46 -21 603 -21 l570 0 34 23 c18 12 44
38 56 56 l23 34 0 563 0 564 93 0 c59 0 97 -4 105 -12 9 -9 12 -168 12 -655
l0 -643 -347 0 c-198 0 -363 -4 -383 -10 -43 -12 -93 -62 -109 -109 -16 -49
-16 -1079 1 -1133 16 -54 75 -105 130 -113 24 -3 284 -5 578 -3 l535 3 37 23
c21 13 45 40 57 66 20 41 21 56 21 591 0 535 -1 550 -21 591 -36 74 -71 88
-231 92 l-138 4 0 649 c0 529 -3 656 -14 682 -19 44 -64 83 -111 96 -28 8
-349 11 -1032 11 l-993 0 0 40 c0 103 -78 218 -183 270 -226 111 -521 -31
-554 -265 l-6 -45 -193 0 -194 0 0 330 0 330 -65 0 -65 0 0 -330 0 -330 -600
0 c-563 0 -601 1 -606 18 -72 221 -301 373 -525 348 l-59 -7 0 151 0 150 -60
0 -60 0 0 -175z m8649 -232 c0 -5 -85 -67 -189 -140 l-189 -131 -178 125 c-98
69 -185 131 -193 139 -12 12 40 14 368 14 210 0 382 -3 381 -7z m-5734 -22
c95 -43 135 -135 115 -263 -13 -88 -38 -142 -85 -188 -30 -29 -44 -35 -80 -35
-87 0 -107 50 -70 174 42 143 28 211 -45 211 -72 0 -122 -96 -100 -190 10 -40
7 -62 -26 -195 -25 -106 -38 -182 -41 -257 -6 -127 3 -137 54 -59 38 57 56
103 78 191 22 89 25 97 33 83 18 -29 79 -53 132 -53 103 0 206 72 250 176 l19
44 236 0 235 0 -2 -317 -3 -318 -787 -3 -788 -2 0 320 0 320 204 0 204 0 40
-40 c50 -50 79 -53 87 -7 5 25 1 43 -16 71 -18 32 -21 47 -17 110 7 115 66
196 165 232 56 19 160 17 208 -5z m2961 -38 c9 -32 19 -61 23 -66 4 -4 13 22
20 58 11 53 17 65 32 65 24 0 24 4 -6 -108 -15 -57 -25 -120 -25 -163 0 -62
-2 -69 -20 -69 -18 0 -20 7 -20 74 0 41 -4 85 -9 98 -5 13 -18 56 -29 96 -20
70 -20 72 -2 72 15 0 23 -13 36 -57z m2074 -99 c67 -48 118 -90 113 -94 -86
-79 -239 -210 -245 -210 -4 0 -8 88 -8 195 0 119 4 195 10 195 5 0 64 -39 130
-86z m768 -202 l-3 -100 -116 101 c-64 56 -116 107 -117 112 0 6 52 47 117 93
l116 83 3 -95 c1 -52 1 -140 0 -194z m-8389 252 c12 -15 21 -32 21 -39 0 -7
-9 -24 -21 -39 -27 -35 -90 -37 -113 -4 -37 52 -8 108 55 108 29 0 42 -6 58
-26z m5777 -5 c27 -30 27 -178 -1 -209 -22 -24 -77 -27 -99 -5 -33 33 -33 180
1 217 22 25 75 23 99 -3z m114 -84 c0 -98 1 -105 20 -105 19 0 20 7 20 105 l0
105 25 0 25 0 0 -125 0 -125 -24 0 c-13 0 -26 5 -28 11 -3 8 -10 8 -26 -2 -17
-10 -26 -11 -40 -3 -14 9 -17 30 -20 128 l-3 116 26 0 25 0 0 -105z m-5954
-106 c34 -28 36 -58 9 -165 -15 -56 -25 -115 -23 -131 3 -26 6 -28 45 -27 36
1 41 -2 33 -16 -11 -20 -73 -40 -124 -40 -43 0 -86 36 -86 72 0 13 12 71 27
130 32 126 28 144 -30 141 -28 -2 -35 1 -30 12 3 8 6 15 7 15 0 0 19 7 41 15
44 17 107 14 131 -6z m7946 -40 l60 -41 59 41 59 42 106 -93 c58 -51 114 -99
125 -107 10 -7 19 -17 19 -22 0 -5 -164 -9 -370 -9 -203 0 -370 3 -369 8 0 6
240 221 247 222 2 0 30 -19 64 -41z m-1802 -38 c66 -35 75 -65 75 -246 0 -181
-9 -211 -75 -250 -33 -19 -51 -20 -325 -20 -272 0 -292 1 -324 20 -71 42 -76
57 -76 243 0 150 2 171 20 202 39 67 55 70 380 70 264 0 293 -2 325 -19z m570
-590 l0 -599 -119 -4 c-116 -3 -120 -4 -158 -34 -36 -30 -84 -117 -70 -130 3
-3 21 6 41 21 76 58 116 65 352 65 l216 0 -42 -35 c-37 -31 -48 -35 -98 -35
l-57 0 31 -19 c48 -29 84 -111 84 -190 0 -85 -26 -137 -100 -202 -103 -89 -99
-128 24 -231 38 -32 79 -72 92 -89 27 -37 48 -128 41 -176 l-6 -33 184 0 c195
0 222 5 269 48 49 47 56 76 56 252 l0 160 655 0 c369 0 655 -4 655 -9 0 -5 -7
-14 -15 -21 -24 -20 -15 -54 15 -58 19 -2 36 9 70 43 31 32 52 45 72 45 l28 0
0 -130 0 -129 -592 -3 c-572 -3 -594 -4 -627 -23 -19 -11 -43 -33 -55 -48 -20
-28 -21 -41 -26 -470 l-5 -442 -205 0 -205 0 -5 85 c-3 47 -10 94 -17 105 -18
31 -65 73 -96 84 -18 7 -170 11 -430 11 -369 0 -405 -2 -442 -19 -48 -22 -69
-44 -90 -94 -13 -32 -15 -135 -15 -799 0 -756 0 -762 21 -806 13 -26 38 -54
62 -70 39 -26 45 -27 214 -30 l173 -3 2 -455 3 -454 -1697 0 c-1670 1 -1698 1
-1708 20 -6 12 -9 77 -8 162 l3 143 1140 5 c1105 5 1142 6 1170 24 44 29 64
57 71 98 4 20 7 1028 8 2240 l1 2203 363 5 364 5 29 33 29 32 0 275 0 275 175
0 175 0 0 -599z m-2754 568 c19 -11 34 -25 34 -30 0 -5 60 -9 137 -9 127 0
138 -2 160 -22 30 -28 29 -38 -7 -73 -24 -23 -32 -26 -45 -15 -11 10 -18 10
-29 1 -11 -9 -19 -9 -34 0 -16 10 -23 10 -36 0 -13 -11 -19 -11 -31 -1 -13 10
-19 10 -33 -4 -10 -9 -30 -16 -45 -16 -14 0 -32 -8 -39 -18 -24 -33 -62 -52
-103 -52 -100 0 -165 104 -120 191 34 65 126 88 191 48z m554 -704 l0 -385
-480 0 -480 0 -2 178 c-2 97 -2 204 -2 237 1 33 2 126 2 208 l2 147 480 0 480
0 0 -385z m-3093 -59 c28 -14 59 -36 68 -50 34 -51 13 -106 -39 -106 -13 0
-38 19 -62 47 -40 46 -44 48 -93 47 -55 -1 -91 -23 -91 -55 0 -25 27 -38 135
-64 51 -13 107 -31 124 -40 98 -50 90 -200 -13 -249 -89 -42 -229 -40 -301 4
-70 43 -96 126 -50 156 33 22 61 10 90 -37 37 -57 65 -72 127 -67 59 6 101 41
91 78 -7 28 -30 39 -142 66 -110 28 -161 61 -175 116 -12 49 0 86 39 124 62
58 200 72 292 30z m1 -720 c49 -33 122 -50 177 -42 40 5 45 4 45 -14 0 -19 -7
-20 -174 -20 l-174 0 -4 46 c-2 25 -1 47 1 50 14 14 95 2 129 -20z m3827 -200
c46 -20 55 -42 55 -136 l0 -82 -119 4 -119 3 -38 39 c-95 98 -235 102 -333 9
l-45 -43 -218 0 -218 0 0 70 c0 87 18 126 63 139 17 5 236 10 485 10 369 1
459 -2 487 -13z m-3605 -873 l0 -868 23 -40 c13 -22 40 -49 62 -62 39 -22 46
-23 373 -23 l332 0 0 -386 0 -387 -50 5 c-71 7 -169 60 -251 136 -67 62 -69
63 -78 40 -32 -85 -19 -163 37 -229 l36 -42 -29 5 c-17 3 -39 9 -49 13 -17 8
-18 5 -12 -31 4 -21 18 -57 31 -80 23 -39 89 -94 113 -94 7 0 12 -4 12 -10 0
-5 -18 -10 -40 -10 l-41 0 15 -27 c25 -48 82 -95 137 -113 l53 -17 -44 -26
c-60 -34 -142 -57 -213 -58 -31 -1 -57 -4 -57 -6 0 -11 152 -73 208 -83 85
-17 250 -8 322 18 250 88 410 294 436 562 6 70 9 77 45 111 l39 36 0 -409 0
-408 -880 2 -881 3 -2 258 -2 257 206 0 c194 0 208 1 233 21 l26 20 0 278 c0
223 -3 281 -14 297 -13 17 -31 19 -233 24 -120 3 -217 8 -215 13 1 4 2 495 2
1092 l0 1085 175 0 175 0 0 -867z m774 861 c14 -6 16 -91 16 -865 l0 -859
-314 0 c-173 0 -321 3 -330 6 -14 6 -16 91 -16 865 l0 859 314 0 c173 0 321
-3 330 -6z m6713 -153 c39 -20 80 -13 116 19 l35 30 456 0 456 0 0 -114 c0
-63 3 -121 6 -130 6 -14 -49 -16 -570 -16 l-576 0 0 123 c0 68 3 127 7 130 3
4 16 -1 27 -12 12 -10 31 -24 43 -30z m1263 -81 l0 -130 -35 0 c-32 0 -35 2
-25 19 5 11 10 69 10 130 l0 111 25 0 25 0 0 -130z m-5474 49 c56 -27 84 -72
84 -135 0 -66 -28 -110 -87 -136 -75 -33 -140 -12 -190 62 -63 92 13 224 131
229 11 1 39 -8 62 -20z m-291 -71 c-21 -92 6 -180 72 -239 51 -46 100 -62 173
-57 77 5 144 46 184 112 25 39 30 59 31 110 0 33 -4 71 -8 84 l-8 22 115 0
116 0 0 -195 c0 -195 0 -196 -25 -220 l-24 -25 -490 0 c-269 0 -497 3 -506 6
-38 15 -45 56 -45 249 l0 185 211 0 211 0 -7 -32z m-985 -93 l0 -85 -88 0
c-55 0 -92 -4 -100 -12 -7 -7 -12 -39 -12 -75 l0 -63 101 0 100 0 -6 -43 c-4
-23 -10 -58 -14 -77 l-7 -35 -87 -3 -87 -3 0 -239 0 -240 -105 0 -105 0 0 239
0 240 -47 3 c-46 3 -48 4 -51 37 -2 18 1 38 6 43 6 6 7 22 2 38 -10 36 -6 40
47 40 l43 0 0 54 c0 123 31 200 93 233 46 24 89 31 210 32 l107 1 0 -85z
m5288 -417 c2 -221 0 -268 -11 -268 -8 0 -40 9 -73 21 -113 40 -237 13 -329
-72 -68 -63 -102 -129 -120 -231 l-6 -38 -319 0 -320 0 0 414 c0 364 2 416 16
430 14 14 77 16 587 14 l572 -3 3 -267z m-1898 -1113 l0 -635 -365 0 -365 0 0
628 c0 346 3 632 7 635 3 4 168 7 365 7 l358 0 0 -635z m600 -134 l0 -529 -57
-32 c-133 -75 -239 -226 -265 -378 l-12 -72 -58 0 -58 0 0 108 c1 74 5 115 15
132 12 21 14 129 15 663 l0 637 210 0 210 0 0 -529z m780 487 c57 -230 224
-448 342 -448 21 0 64 9 95 20 32 11 63 20 70 20 18 0 19 -1060 1 -1078 -9 -9
-82 -12 -268 -12 l-256 0 -12 72 c-29 166 -144 320 -293 391 -90 43 -155 57
-259 57 l-80 0 0 510 0 510 325 0 324 0 11 -42z m2975 -172 c27 -28 38 -70 33
-141 l-3 -50 -118 -3 -118 -3 -43 44 c-96 99 -226 101 -331 6 l-53 -49 -211 0
-211 0 0 85 c0 78 2 88 25 110 l24 25 491 0 491 0 24 -24z m-8335 -476 l0
-320 -26 -10 c-51 -20 -57 -11 -20 32 20 23 36 48 36 55 0 17 0 17 -51 -7 -48
-21 -94 -26 -104 -10 -15 25 -86 50 -140 50 -64 0 -106 -15 -152 -54 l-33 -28
0 306 0 306 245 0 245 0 0 -320z m7997 289 c38 -23 73 -84 73 -125 0 -78 -77
-154 -155 -154 -96 0 -170 96 -146 188 10 36 60 94 91 105 36 13 104 6 137
-14z m-302 -46 c-30 -74 -11 -172 46 -237 113 -128 319 -97 390 59 20 44 25
129 9 170 l-10 26 118 -3 117 -3 3 -168 c1 -97 -2 -185 -8 -207 -19 -71 -9
-70 -540 -70 -496 0 -517 2 -534 45 -3 9 -6 104 -6 211 l0 194 211 0 c197 0
211 -1 204 -17z m-9745 -333 c0 -29 -1 -30 -50 -30 -49 0 -50 1 -50 30 0 29 1
30 50 30 49 0 50 -1 50 -30z m180 0 c0 -30 -1 -30 -55 -30 -54 0 -55 0 -55 30
0 30 1 30 55 30 54 0 55 0 55 -30z m180 0 c0 -30 -1 -30 -55 -30 -54 0 -55 0
-55 30 0 30 1 30 55 30 54 0 55 0 55 -30z m170 0 c0 -29 -1 -30 -50 -30 -49 0
-50 1 -50 30 0 29 1 30 50 30 49 0 50 -1 50 -30z m180 0 c0 -30 -1 -30 -55
-30 -54 0 -55 0 -55 30 0 30 1 30 55 30 54 0 55 0 55 -30z m-412 -164 c97 -49
120 -69 104 -88 -6 -7 -56 -35 -111 -63 -96 -47 -102 -48 -118 -32 -21 21 -31
156 -14 200 15 37 36 35 139 -17z m5426 -208 c15 -13 29 -37 32 -54 5 -26 0
-38 -24 -65 -39 -43 -94 -45 -129 -4 -72 83 39 195 121 123z m-5724 -104 l0
-35 -52 3 c-42 2 -54 7 -56 21 -7 37 5 47 58 47 l50 0 0 -36z m178 -1 l3 -33
-55 0 c-55 0 -56 1 -56 28 0 39 7 43 60 40 43 -3 45 -5 48 -35z m172 2 l0 -35
-50 0 -50 0 0 35 0 35 50 0 50 0 0 -35z m178 -2 l3 -33 -55 0 c-55 0 -56 1
-56 28 0 39 7 43 60 40 43 -3 45 -5 48 -35z m177 2 c0 -29 -2 -30 -52 -33
l-53 -3 0 36 0 36 53 -3 c50 -3 52 -4 52 -33z m5915 -160 c0 -58 2 -105 5
-105 3 0 64 47 137 104 73 58 136 102 140 100 4 -3 8 -45 8 -95 l0 -89 120 95
c66 52 122 95 125 95 3 0 5 -115 5 -255 0 -140 -2 -255 -5 -255 -3 0 -59 43
-125 95 l-120 95 0 -89 c0 -50 -4 -92 -8 -95 -4 -2 -67 42 -140 100 -73 57
-134 104 -137 104 -3 0 -5 -47 -5 -105 l0 -105 -45 0 -45 0 0 255 0 255 45 0
45 0 0 -105z m-570 -440 l0 -455 -162 0 -163 0 3 455 2 455 160 0 160 0 0
-455z m265 153 c25 -119 142 -272 258 -338 l57 -32 0 -119 0 -119 -225 0 -225
0 0 313 c0 173 3 317 7 320 3 4 32 7 64 7 57 0 57 0 64 -32z m-6157 -592 c2
-219 -1 -313 -9 -322 -9 -11 -82 -14 -390 -14 l-379 0 2 318 3 317 155 5 c85
4 259 6 385 5 l230 0 3 -309z m3216 -93 c3 -10 8 -36 12 -58 8 -50 33 -78 84
-95 38 -13 42 -12 101 25 l61 37 29 -28 c16 -15 29 -32 29 -37 0 -4 -13 -27
-28 -50 -42 -61 -44 -74 -24 -120 24 -54 35 -62 105 -77 l58 -12 -3 -46 -3
-46 -57 -12 c-70 -14 -81 -22 -103 -80 l-17 -45 37 -60 37 -61 -28 -29 c-15
-16 -32 -29 -37 -29 -4 0 -29 14 -54 31 -37 26 -52 30 -84 26 -74 -10 -88 -27
-113 -139 -6 -25 -10 -28 -51 -28 -41 0 -45 3 -51 28 -25 112 -39 129 -112
139 -32 4 -47 0 -78 -21 -21 -14 -46 -26 -56 -26 -16 0 -58 44 -58 61 0 4 14
30 31 58 l32 51 -17 44 c-22 57 -34 66 -104 80 l-57 12 -3 46 -3 46 58 12 c70
15 81 23 105 77 20 46 18 59 -24 120 -15 23 -28 46 -28 50 0 5 13 22 29 37
l29 28 62 -38 c59 -36 63 -37 98 -25 56 20 79 47 87 99 4 25 14 52 23 59 26
19 80 16 86 -4z m-178 -35 c-3 -13 -6 -26 -6 -29 0 -3 -10 -11 -23 -16 -18 -9
-28 -7 -47 7 -27 21 -27 21 15 43 45 24 69 22 61 -5z m335 -37 c-20 -15 -29
-17 -48 -8 -37 16 -27 27 25 27 l47 0 -24 -19z m2059 -176 c0 -107 1 -198 3
-202 1 -5 -68 -10 -153 -13 -162 -6 -190 -13 -249 -57 -67 -51 -71 -73 -71
-400 0 -182 4 -302 11 -320 17 -45 69 -91 126 -113 50 -19 78 -20 423 -20
l370 0 0 -160 0 -160 -1015 0 -1015 0 0 446 c0 501 1 493 -73 542 -35 23 -52
27 -138 30 -86 4 -99 7 -104 23 -13 40 3 56 66 68 86 17 99 34 99 125 0 98 -3
101 -132 130 -43 10 -46 46 -9 100 40 58 40 95 0 141 l-31 35 946 0 946 0 0
-195z m460 -10 l0 -205 -160 2 c-88 2 -160 6 -160 11 0 4 0 95 0 202 l0 195
160 0 160 0 0 -205z m578 -227 l-3 -433 -87 -3 -88 -3 0 161 c0 142 -2 166
-20 200 -32 63 -88 94 -177 98 l-73 4 0 204 0 204 225 0 225 0 -2 -432z m610
420 c9 -9 12 -119 12 -435 l0 -423 -250 0 -250 0 0 435 0 435 238 0 c172 0
241 -3 250 -12z m-7988 -458 l0 -150 -62 0 -63 1 -39 82 c-29 61 -56 99 -106
149 l-68 68 169 0 169 0 0 -150z m10726 -167 c69 -23 155 -110 179 -182 25
-77 17 -171 -21 -241 -115 -212 -412 -211 -529 1 -27 48 -30 63 -30 139 0 71
4 93 25 134 31 60 106 130 163 149 57 21 153 21 213 0z m-4123 -132 c109 -79
126 -95 116 -108 -14 -16 -255 -193 -264 -193 -3 0 -5 93 -5 206 0 164 3 204
13 197 6 -6 70 -52 140 -102z m4497 54 l0 -35 -70 0 -70 0 0 35 0 35 70 0 70
0 0 -35z m-3720 -589 c0 -264 -2 -307 -16 -320 -13 -14 -48 -16 -225 -16
l-209 0 0 160 0 160 53 0 c70 0 120 15 158 47 46 39 59 79 59 183 l0 90 90 0
90 0 0 -304z"/>
<path d="M6875 8000 c-5 -9 -8 -107 -6 -177 2 -29 30 -11 37 22 14 75 -9 190
-31 155z"/>
<path d="M6590 7650 c0 -25 4 -30 25 -30 l25 0 0 -145 0 -145 25 0 25 0 0 144
0 145 28 3 c21 2 27 8 27 28 0 24 -2 25 -77 28 l-78 3 0 -31z"/>
<path d="M6940 7505 l0 -175 25 0 c17 0 25 6 25 17 0 14 3 13 20 -5 25 -27 32
-27 53 -4 14 15 17 40 17 121 0 56 -5 111 -10 122 -14 26 -45 24 -64 -3 -15
-21 -16 -19 -16 40 0 59 -1 62 -25 62 l-25 0 0 -175z m84 13 c9 -34 7 -111 -3
-127 -18 -28 -31 1 -31 68 0 37 3 71 7 74 12 12 21 7 27 -15z"/>
<path d="M7153 7590 c-39 -16 -57 -143 -30 -219 20 -59 106 -62 127 -6 17 45
13 65 -14 65 -21 0 -25 -6 -28 -32 -2 -22 -9 -34 -20 -36 -15 -3 -18 4 -18 42
l0 46 45 0 c44 0 45 0 45 34 0 51 -20 96 -47 107 -28 11 -31 11 -60 -1z m47
-75 c0 -24 -5 -35 -15 -35 -10 0 -15 11 -15 35 0 24 5 35 15 35 10 0 15 -11
15 -35z"/>
<path d="M6750 7483 c0 -60 3 -118 6 -130 8 -29 32 -37 60 -18 13 9 24 11 24
5 0 -5 11 -10 24 -10 l25 0 3 130 3 130 -27 0 -28 0 0 -105 c0 -87 -3 -105
-15 -105 -12 0 -15 18 -15 105 l0 105 -30 0 -30 0 0 -107z"/>
<path d="M7595 6400 c-51 -21 -95 -101 -95 -173 0 -142 105 -276 215 -277 55
0 98 29 125 85 42 87 16 229 -59 308 -52 56 -130 80 -186 57z"/>
<path d="M7460 5836 l0 -144 61 19 c35 11 90 19 130 19 38 0 69 2 69 5 0 3 -9
18 -20 33 -22 30 -28 72 -17 115 7 25 5 27 -22 27 -53 0 -130 21 -166 45 l-35
24 0 -143z"/>
<path d="M7600 5687 c-48 -14 -110 -47 -130 -71 -9 -11 -8 -22 6 -48 23 -46
43 -67 86 -89 32 -17 60 -19 214 -19 l177 0 -5 51 c-6 57 -38 98 -121 151 -39
25 -61 31 -115 34 -37 2 -87 -2 -112 -9z"/>
<path d="M4901 7636 c-19 -23 -4 -56 25 -56 28 0 42 25 27 49 -14 22 -37 25
-52 7z"/>
<path d="M4730 7015 l0 -305 398 2 397 3 3 303 2 302 -400 0 -400 0 0 -305z
m458 223 c7 -7 12 -25 12 -40 0 -25 3 -28 35 -28 l35 0 -2 -167 -3 -168 -137
-3 -138 -3 0 170 0 170 33 3 c26 2 33 8 35 28 2 14 5 31 7 38 6 16 107 16 123
0z m-238 -233 c0 -145 -2 -166 -17 -172 -9 -3 -28 0 -42 8 -26 15 -26 15 -29
158 -3 159 1 171 54 171 l34 0 0 -165z m434 143 c13 -17 16 -51 16 -148 0
-140 -6 -156 -57 -166 l-33 -6 0 171 0 171 29 0 c20 0 35 -8 45 -22z"/>
<path d="M5080 7195 c0 -23 4 -25 45 -25 41 0 45 2 45 25 0 23 -4 25 -45 25
-41 0 -45 -2 -45 -25z"/>
<path d="M5334 1916 c-47 -21 -105 -77 -125 -121 -12 -25 -19 -64 -19 -105 0
-90 41 -160 119 -203 114 -64 251 -28 319 83 28 47 32 63 32 120 0 41 -7 80
-19 105 -20 46 -79 101 -127 121 -42 18 -139 17 -180 0z m157 -28 c84 -28 139
-104 139 -191 0 -122 -85 -207 -205 -207 -120 0 -205 85 -205 207 0 138 139
237 271 191z"/>
<path d="M5363 1815 c-69 -30 -95 -130 -50 -196 28 -42 60 -59 112 -59 52 0
84 17 112 59 78 116 -44 253 -174 196z m126 -46 c34 -32 44 -66 30 -106 -11
-36 -59 -73 -92 -73 -35 0 -79 31 -93 66 -17 42 -11 69 24 107 33 35 96 38
131 6z"/>
<path d="M11875 1381 c-178 -82 -162 -354 24 -410 150 -45 291 57 291 210 -1
92 -50 169 -132 203 -50 21 -134 20 -183 -3z"/>
<path d="M11281 8345 c-96 -27 -104 -34 -121 -98 l-14 -57 -488 0 c-518 0
-529 -1 -581 -48 -54 -48 -52 -12 -48 -862 2 -432 4 -786 6 -788 2 -2 17 4 34
13 31 15 31 15 31 -10 0 -23 -4 -25 -41 -25 -37 0 -47 -6 -114 -72 -106 -105
-110 -142 -23 -235 40 -42 57 -53 77 -51 43 5 37 34 -18 93 -28 30 -51 59 -51
65 0 6 26 38 57 71 45 47 62 59 82 57 23 -3 27 -9 34 -57 9 -63 22 -83 51 -79
21 3 21 7 18 193 l-4 190 89 -87 c49 -49 95 -88 104 -88 17 0 39 19 39 33 0 5
-52 62 -115 127 -63 65 -115 123 -115 129 0 28 22 51 48 51 21 0 51 -24 137
-110 112 -113 135 -125 159 -87 9 15 -7 35 -116 143 l-127 126 -61 -4 -60 -4
0 574 c0 376 4 580 10 593 10 18 26 19 480 19 259 0 470 -1 470 -3 0 -1 -11
-42 -24 -90 -22 -78 -23 -88 -8 -82 68 29 143 45 207 45 66 0 82 -4 148 -38
l74 -39 58 214 c32 117 56 215 54 217 -2 2 -33 18 -69 36 -78 40 -181 49 -269
25z"/>
<path d="M11690 8205 c0 -9 -9 -15 -22 -15 -19 0 -20 -2 -6 -17 14 -16 11 -35
-33 -198 -56 -205 -59 -186 41 -234 48 -23 68 -26 155 -26 80 0 112 5 161 23
l62 24 39 146 39 147 337 3 337 2 0 65 0 65 -528 0 c-449 0 -531 2 -548 15
-25 19 -34 19 -34 0z"/>
<path d="M11154 7815 c-125 -35 -111 -15 -175 -251 -31 -115 -55 -210 -54
-212 1 -1 28 8 61 19 41 15 85 22 145 23 81 1 91 -1 159 -36 41 -21 75 -37 76
-35 5 5 114 407 114 422 0 7 -29 28 -65 46 -78 38 -178 48 -261 24z"/>
<path d="M11541 7653 c-5 -21 -31 -116 -56 -212 -38 -141 -44 -176 -33 -183 7
-5 42 -24 78 -41 58 -28 74 -32 155 -31 68 0 105 5 149 22 33 12 64 26 69 31
7 7 117 402 113 407 -1 1 -35 -7 -76 -18 -98 -26 -222 -21 -297 12 -29 12 -58
28 -64 36 -18 22 -28 17 -38 -23z"/>
<path d="M11610 6539 c0 -6 14 -30 30 -54 l31 -44 -39 -25 c-54 -34 -108 -100
-126 -154 -31 -90 -62 -82 339 -82 290 0 355 2 355 13 0 32 -30 111 -55 143
-15 20 -49 51 -76 71 l-49 35 30 43 c17 24 30 48 30 54 0 25 -22 8 -51 -40
-21 -32 -36 -48 -46 -45 -53 21 -144 28 -203 17 -34 -7 -68 -15 -75 -17 -7 -3
-26 17 -45 45 -30 48 -50 64 -50 40z m108 -191 c28 -28 1 -75 -38 -63 -14 4
-20 15 -20 35 0 37 33 53 58 28z m296 6 c24 -9 21 -61 -4 -69 -39 -12 -66 35
-38 63 14 14 20 14 42 6z"/>
<path d="M773 5905 c-162 -35 -331 -193 -271 -253 24 -24 52 -11 104 46 74 83
150 117 259 117 71 0 88 -4 148 -33 46 -23 81 -50 114 -88 35 -41 53 -54 74
-54 19 0 30 6 34 21 12 35 -3 66 -59 124 -64 65 -151 109 -246 124 -78 13 -79
13 -157 -4z"/>
<path d="M807 5679 c-81 -19 -133 -57 -176 -129 -25 -42 -26 -54 -5 -74 28
-29 60 -20 91 27 31 47 99 87 148 87 52 -1 110 -34 144 -84 25 -36 38 -46 60
-46 73 0 41 113 -50 176 -37 26 -125 55 -159 53 -8 -1 -32 -5 -53 -10z"/>
<path d="M6217 4733 c-16 -16 -4 -47 38 -99 188 -230 185 -560 -5 -777 -42
-48 -50 -77 -25 -97 23 -19 48 -3 100 60 55 67 110 178 130 262 19 82 19 257
0 333 -44 173 -189 367 -238 318z"/>
<path d="M6092 4608 c-20 -20 -14 -38 28 -93 72 -93 85 -134 85 -265 0 -105
-2 -120 -28 -174 -15 -33 -44 -79 -63 -103 -28 -34 -35 -50 -30 -68 15 -60 96
-4 150 103 86 170 77 369 -25 521 -55 83 -90 106 -117 79z"/>
<path d="M5984 4479 c-13 -14 -15 -24 -9 -34 6 -8 22 -31 38 -53 62 -88 59
-199 -9 -298 -36 -54 -37 -79 -2 -90 47 -14 123 106 134 212 10 97 -37 225
-98 268 -29 20 -31 20 -54 -5z"/>
<path d="M610 1655 c-94 -27 -171 -90 -218 -180 -20 -39 -27 -69 -30 -137 -4
-81 -2 -91 26 -150 16 -35 42 -76 57 -91 l26 -28 27 28 c15 16 38 36 52 45
l25 16 -21 23 c-38 42 -58 92 -58 144 0 171 203 265 331 152 89 -78 95 -215
13 -297 -21 -21 -22 -23 -5 -33 10 -5 35 -25 55 -43 l38 -34 28 32 c72 86 99
205 70 311 -49 180 -240 290 -416 242z"/>
<path d="M625 1440 c-83 -54 -85 -179 -3 -230 26 -17 45 -20 87 -17 47 3 59 9
88 40 29 32 33 43 33 91 0 39 -6 60 -21 80 -45 57 -128 73 -184 36z"/>
<path d="M615 1102 c-51 -24 -101 -80 -114 -129 -6 -21 -11 -73 -11 -115 l0
-78 205 0 205 0 0 93 c0 79 -4 101 -23 138 -50 93 -169 135 -262 91z"/>
</g>
</svg>
