<?xml version="1.0" standalone="no"?>
<!DOCTYPE svg PUBLIC "-//W3C//DTD SVG 20010904//EN"
 "http://www.w3.org/TR/2001/REC-SVG-20010904/DTD/svg10.dtd">
<svg version="1.0" xmlns="http://www.w3.org/2000/svg"
 width="1280.000000pt" height="640.000000pt" viewBox="0 0 1280.000000 640.000000"
 preserveAspectRatio="xMidYMid meet">
<metadata>
Created by potrace 1.15, written by Peter Selinger 2001-2017
</metadata>
<g transform="translate(0.000000,640.000000) scale(0.100000,-0.100000)"
fill="#e2a889" stroke="none">
<path d="M1510 5444 c-429 -54 -742 -190 -992 -433 -326 -314 -493 -682 -515
-1132 -17 -354 84 -696 303 -1024 213 -320 442 -478 829 -574 184 -45 289 -56
540 -55 362 1 569 33 1161 180 l112 28 4 375 c5 429 1 407 93 486 30 26 55 51
55 56 0 5 -197 9 -447 9 l-448 0 -159 -88 c-95 -52 -152 -88 -142 -90 10 -2
102 1 205 7 102 7 234 15 294 18 l107 6 0 -356 0 -356 -80 -26 c-148 -46 -233
-65 -344 -76 -324 -31 -714 75 -966 261 -116 87 -195 164 -292 290 -269 344
-380 682 -364 1110 13 373 122 650 348 886 103 107 187 171 308 233 190 98
334 127 592 119 126 -5 169 -10 243 -32 108 -31 241 -95 350 -168 76 -51 225
-188 225 -208 0 -5 -21 -43 -46 -85 -25 -42 -44 -79 -41 -82 3 -3 34 0 67 5
61 11 63 13 208 151 81 76 162 155 181 174 l33 35 -103 68 c-165 107 -307 165
-540 223 -196 48 -314 63 -539 66 -113 2 -221 1 -240 -1z"/>
<path d="M10129 5313 l-154 -78 159 -3 159 -3 -7 -147 c-19 -439 -29 -899 -34
-1723 l-7 -917 -40 -56 c-22 -32 -46 -66 -54 -77 -13 -19 -7 -19 364 -19 l377
0 69 41 c38 23 69 45 69 50 0 5 -12 9 -27 9 -53 0 -270 48 -296 65 -14 9 -31
33 -38 53 -15 44 -6 2008 10 2292 15 262 30 397 47 439 19 46 59 88 106 112
20 10 39 23 43 29 4 7 -93 10 -293 10 l-300 0 -153 -77z"/>
<path d="M4340 4330 c-301 -29 -551 -152 -728 -359 -175 -203 -248 -387 -259
-656 -8 -213 31 -383 131 -558 148 -260 334 -410 601 -483 126 -35 349 -44
495 -20 360 61 618 256 775 589 97 204 125 420 85 643 -24 134 -57 233 -111
333 -165 308 -427 479 -783 511 -55 5 -108 9 -116 8 -8 0 -49 -4 -90 -8z m125
-145 c32 -9 81 -28 109 -43 70 -37 177 -141 232 -224 74 -111 148 -309 195
-518 29 -134 37 -409 15 -540 -48 -286 -260 -489 -510 -490 -124 0 -198 17
-264 59 -165 108 -294 283 -375 508 -15 40 -43 141 -64 225 -36 148 -37 159
-38 333 0 211 11 275 67 394 78 164 211 262 413 305 48 10 166 5 220 -9z"/>
<path d="M11909 4329 c-317 -36 -644 -261 -768 -530 -208 -447 -71 -1075 299
-1376 83 -67 222 -137 325 -164 104 -27 333 -37 442 -19 100 16 226 59 306
104 56 31 273 223 264 232 -2 2 -51 -16 -108 -39 -159 -67 -225 -82 -364 -82
-97 0 -134 5 -194 23 -194 61 -371 191 -481 352 -58 85 -131 244 -169 365 -47
152 -59 138 132 157 l162 16 315 132 c173 72 392 163 485 202 94 39 174 75
180 79 27 26 -61 219 -140 306 -64 71 -183 155 -266 189 -113 46 -290 68 -420
53z m112 -165 c77 -23 131 -57 188 -119 57 -63 87 -120 101 -193 11 -60 3 -91
-33 -118 -35 -28 -847 -388 -855 -379 -4 4 -7 91 -7 193 1 176 2 192 28 268
75 225 244 363 448 364 41 0 100 -7 130 -16z"/>
<path d="M6635 4310 c-441 -62 -780 -359 -897 -785 -26 -93 -36 -335 -18 -443
34 -216 164 -450 338 -614 238 -223 601 -298 980 -202 192 48 340 132 465 263
160 168 263 371 302 595 47 274 -31 584 -206 816 -132 175 -286 280 -509 347
-72 21 -109 26 -240 28 -85 2 -182 0 -215 -5z m186 -134 c256 -78 420 -316
525 -762 26 -111 28 -134 29 -334 0 -242 -6 -278 -66 -408 -30 -66 -54 -99
-111 -156 -121 -120 -231 -162 -407 -154 -83 3 -105 8 -164 37 -116 56 -262
211 -341 361 -40 78 -110 281 -125 365 -36 204 -41 252 -41 377 0 193 14 275
63 378 68 145 197 252 353 295 66 18 227 18 285 1z"/>
<path d="M8950 4284 c-14 -2 -65 -9 -115 -15 -182 -23 -350 -88 -469 -183
-255 -205 -367 -493 -304 -781 34 -159 178 -355 324 -440 108 -63 281 -101
430 -93 94 5 93 6 68 -63 -20 -55 -21 -161 -1 -214 8 -23 33 -71 56 -108 22
-37 41 -71 41 -75 0 -4 -62 -13 -137 -20 -270 -22 -412 -57 -599 -147 -206
-100 -326 -222 -384 -395 -80 -238 -18 -438 188 -602 173 -137 386 -198 692
-198 469 0 812 149 1004 438 85 129 116 230 116 387 0 243 -97 409 -371 629
-198 158 -228 202 -217 315 6 64 65 149 169 243 209 190 276 342 267 617 -3
114 -7 133 -37 206 -43 107 -98 190 -176 265 -36 34 -65 64 -65 66 0 2 55 4
122 4 l122 0 128 73 c70 39 128 75 128 78 0 4 -10 9 -22 13 -24 6 -914 6 -958
0z m-54 -168 c164 -43 284 -179 369 -416 57 -161 77 -299 64 -460 -7 -90 -13
-114 -43 -176 -29 -58 -46 -78 -88 -107 -82 -56 -130 -70 -238 -71 -132 -1
-193 27 -294 135 -149 159 -237 365 -253 596 -12 187 50 352 164 436 94 69
211 92 319 63z m310 -2013 c314 -236 368 -311 369 -514 0 -102 -1 -108 -37
-180 -67 -135 -195 -228 -368 -266 -92 -20 -339 -22 -425 -4 -163 34 -285 90
-393 182 -246 207 -197 578 96 732 137 72 334 114 543 116 l126 1 89 -67z"/>
</g>
</svg>
