<?xml version="1.0" standalone="no"?>
<!DOCTYPE svg PUBLIC "-//W3C//DTD SVG 20010904//EN"
 "http://www.w3.org/TR/2001/REC-SVG-20010904/DTD/svg10.dtd">
<svg version="1.0" xmlns="http://www.w3.org/2000/svg"
 width="1013.000000pt" height="1280.000000pt" viewBox="0 0 1013.000000 1280.000000"
 preserveAspectRatio="xMidYMid meet">
<metadata>
Created by potrace 1.15, written by Peter Selinger 2001-2017
</metadata>
<g transform="translate(0.000000,1280.000000) scale(0.100000,-0.100000)"
fill="#e2a889" stroke="none">
<path d="M2397 12721 c-534 -333 -999 -758 -1372 -1253 -367 -487 -646 -1037
-819 -1620 -253 -849 -271 -1796 -51 -2668 226 -896 675 -1684 1334 -2340 319
-318 606 -543 976 -767 214 -129 252 -140 295 -85 39 49 14 104 -63 144 -63
32 -229 133 -347 211 -894 595 -1578 1483 -1922 2497 -176 521 -258 1018 -258
1580 0 973 272 1884 805 2690 385 582 886 1073 1482 1452 76 48 146 97 156
109 32 39 18 92 -30 117 -38 21 -56 14 -186 -67z"/>
<path d="M7622 12717 c-22 -23 -30 -80 -14 -103 4 -7 70 -53 147 -104 300
-199 501 -364 771 -634 274 -275 444 -483 639 -781 461 -705 719 -1469 786
-2328 15 -191 6 -683 -15 -877 -151 -1342 -828 -2541 -1901 -3365 -118 -91
-361 -255 -475 -320 -88 -51 -110 -75 -110 -118 0 -37 40 -77 78 -77 30 0 186
88 352 200 930 624 1632 1542 1985 2595 569 1698 206 3554 -961 4915 -127 148
-387 408 -534 534 -157 134 -360 287 -525 395 -152 100 -184 110 -223 68z"/>
<path d="M2970 11882 c-438 -256 -891 -677 -1212 -1125 -544 -759 -811 -1719
-738 -2658 97 -1245 756 -2368 1800 -3066 117 -78 304 -188 336 -197 31 -9 74
28 74 64 0 35 -18 50 -162 135 -642 379 -1160 931 -1498 1596 -225 443 -355
884 -411 1399 -17 148 -17 612 0 760 19 176 58 399 97 560 233 951 831 1797
1647 2330 195 127 210 139 210 175 0 31 -33 65 -62 65 -9 0 -45 -17 -81 -38z"/>
<path d="M7119 11860 c-22 -13 -32 -56 -19 -80 6 -10 77 -64 158 -119 804
-547 1361 -1335 1606 -2273 87 -329 120 -601 120 -978 0 -297 -14 -460 -60
-710 -179 -968 -715 -1833 -1509 -2432 -79 -59 -285 -196 -356 -236 -31 -18
-62 -39 -69 -47 -31 -38 0 -105 48 -105 29 0 115 49 272 153 591 395 1068 933
1383 1564 216 431 350 887 409 1398 17 148 17 673 0 830 -135 1220 -770 2271
-1787 2958 -127 86 -159 98 -196 77z"/>
<path d="M3424 10997 c-395 -250 -718 -576 -973 -982 -78 -124 -206 -384 -260
-527 -304 -807 -256 -1705 131 -2470 241 -476 617 -895 1068 -1191 167 -109
233 -142 258 -128 29 16 37 49 17 71 -9 10 -53 39 -98 65 -431 250 -826 648
-1081 1088 -404 698 -503 1573 -265 2342 109 353 297 708 526 995 190 238 500
513 750 665 34 20 70 46 80 57 16 18 16 22 2 46 -8 15 -24 28 -35 30 -11 2
-64 -25 -120 -61z"/>
<path d="M6619 11011 c-39 -31 -20 -63 75 -124 472 -308 882 -796 1101 -1311
365 -861 316 -1811 -136 -2621 -246 -441 -599 -811 -1031 -1079 -59 -37 -109
-75 -113 -85 -16 -51 36 -76 94 -45 70 37 288 187 381 262 859 695 1282 1789
1109 2871 -135 849 -610 1593 -1321 2073 -114 76 -131 82 -159 59z"/>
<path d="M5015 9209 c-365 -56 -665 -398 -665 -759 0 -275 171 -545 432 -680
l78 -41 0 -3750 c0 -2728 3 -3762 11 -3794 14 -54 75 -127 133 -158 57 -30
165 -30 222 0 54 29 117 101 132 151 9 30 12 945 12 3795 l0 3756 63 31 c205
104 346 268 419 486 20 60 23 88 22 209 0 124 -3 148 -26 213 -76 214 -227
381 -429 476 -129 61 -277 85 -404 65z"/>
</g>
</svg>
