<?xml version="1.0" standalone="no"?>
<!DOCTYPE svg PUBLIC "-//W3C//DTD SVG 20010904//EN"
 "http://www.w3.org/TR/2001/REC-SVG-20010904/DTD/svg10.dtd">
<svg version="1.0" xmlns="http://www.w3.org/2000/svg"
 width="1280.000000pt" height="976.000000pt" viewBox="0 0 1280.000000 976.000000"
 preserveAspectRatio="xMidYMid meet">
<metadata>
Created by potrace 1.15, written by Peter Selinger 2001-2017
</metadata>
<g transform="translate(0.000000,976.000000) scale(0.100000,-0.100000)"
fill="#e2a889" stroke="none">
<path d="M9480 9299 c-267 -4 -764 -12 -1105 -18 -341 -5 -942 -15 -1335 -21
-393 -5 -940 -14 -1215 -20 -275 -5 -769 -13 -1097 -16 l-598 -7 -2 -991 -3
-991 -62 -7 c-38 -4 -86 -19 -125 -38 l-64 -32 -54 34 c-52 32 -56 33 -164 32
-97 0 -120 -4 -181 -28 -141 -57 -251 -169 -334 -341 -60 -123 -74 -159 -112
-293 -35 -125 -61 -252 -85 -411 -21 -136 -27 -127 116 -171 161 -50 296 -62
414 -39 56 12 57 11 87 -17 44 -42 114 -151 133 -208 16 -50 21 -96 10 -96
-12 0 -79 44 -148 97 -37 29 -72 53 -77 53 -16 0 -114 -86 -136 -120 -16 -23
-23 -48 -23 -82 0 -32 -7 -59 -18 -76 -24 -35 -72 -138 -108 -230 -23 -61 -26
-77 -16 -93 10 -16 9 -31 -8 -81 -47 -142 -5 -254 133 -353 l27 -20 -13 -62
c-7 -35 -18 -68 -25 -75 -6 -6 -33 -15 -59 -19 -27 -4 -86 -14 -133 -22 -237
-42 -272 -47 -280 -42 -5 3 -12 22 -15 43 -3 20 -15 73 -25 118 l-19 81 44 47
c25 25 45 52 45 59 0 22 -47 135 -86 205 -55 100 -190 230 -286 276 -83 40
-114 44 -159 20 -17 -8 -33 -13 -36 -10 -3 2 17 62 44 133 27 70 55 148 62
173 7 25 17 55 21 66 10 26 35 128 50 207 l11 57 53 0 c68 0 86 18 86 88 0 43
-4 54 -26 71 -15 12 -40 21 -56 21 -36 0 -45 21 -30 74 5 22 7 47 2 56 -4 8
-11 54 -15 101 l-7 87 45 -5 c58 -7 91 1 117 29 27 30 25 77 -5 122 -30 44
-30 41 -5 66 26 26 25 62 -2 118 -32 63 -68 97 -127 116 -59 19 -81 20 -116 4
-19 -9 -28 -9 -37 0 -7 7 -31 12 -54 12 -33 0 -45 5 -58 25 -19 29 -56 41 -84
26 -17 -9 -23 -7 -34 7 -7 11 -23 24 -36 31 -19 10 -28 9 -56 -7 -32 -19 -33
-19 -55 -1 -26 22 -61 25 -79 7 -7 -7 -29 -11 -51 -10 -26 2 -54 -5 -84 -23
-25 -14 -61 -25 -79 -25 -38 0 -78 -24 -78 -47 0 -12 -8 -14 -33 -10 -48 7
-74 -7 -87 -47 -10 -32 -16 -36 -45 -36 -36 0 -49 -11 -59 -52 -3 -16 -12 -28
-20 -28 -22 0 -46 -35 -46 -68 0 -23 -8 -36 -31 -53 -38 -27 -49 -55 -36 -92
9 -26 6 -32 -27 -65 -37 -35 -37 -37 -31 -93 4 -37 3 -59 -4 -63 -16 -10 -13
-63 4 -90 13 -19 13 -28 4 -50 -15 -32 -24 -32 -108 -2 -36 13 -86 25 -111 27
-42 4 -45 2 -62 -31 -24 -50 -55 -156 -63 -217 l-7 -53 -41 0 c-64 -1 -105
-45 -93 -101 4 -20 0 -33 -11 -41 -9 -7 -36 -32 -60 -56 -35 -34 -43 -49 -43
-78 0 -36 28 -74 75 -100 18 -10 18 -12 -5 -44 -13 -19 -25 -52 -28 -79 -4
-42 -1 -51 33 -91 30 -36 36 -49 31 -74 -20 -104 -20 -103 9 -130 18 -17 44
-28 77 -32 41 -6 52 -11 61 -33 33 -79 88 -92 153 -37 l39 34 29 -23 c23 -18
28 -28 23 -51 -6 -33 3 -53 50 -112 40 -49 40 -37 5 -287 -11 -82 -24 -187
-27 -231 l-7 -81 -46 -38 c-30 -26 -60 -41 -91 -47 -25 -4 -86 -14 -136 -23
-97 -16 -214 -37 -310 -55 -33 -6 -99 -18 -148 -25 -48 -8 -92 -17 -97 -20 -6
-3 -10 -39 -10 -80 l0 -73 103 -70 c175 -121 310 -215 403 -280 49 -35 145
-103 214 -151 l125 -87 3 -380 2 -380 177 -160 c97 -87 195 -175 217 -194 22
-19 70 -62 106 -95 36 -33 104 -94 150 -135 47 -41 112 -100 145 -130 33 -31
145 -132 250 -226 104 -93 219 -196 255 -229 36 -33 104 -94 150 -135 47 -41
114 -102 150 -135 36 -33 104 -94 150 -135 47 -41 112 -101 146 -132 60 -58
61 -58 122 -58 l62 0 0 728 1 727 34 39 35 39 59 -27 c222 -99 392 -82 514 53
21 24 41 40 44 37 6 -6 -15 -134 -27 -156 -5 -10 -30 -17 -75 -22 -114 -11
-311 -66 -397 -109 -150 -77 -174 -192 -83 -410 26 -63 57 -152 70 -199 l23
-85 -66 -12 c-84 -15 -112 -43 -112 -108 0 -86 136 -311 265 -440 85 -85 135
-116 225 -140 70 -19 104 -19 169 1 77 22 109 83 79 149 -18 40 -30 29 -22
-20 12 -84 -43 -122 -163 -112 -172 13 -338 165 -482 440 -50 94 -56 157 -18
182 27 18 107 29 123 18 7 -4 17 -48 23 -97 12 -98 18 -109 72 -137 l38 -19 3
-103 3 -102 160 0 160 0 5 69 5 70 19 -52 c10 -29 22 -55 27 -58 16 -9 10 39
-11 94 -26 67 -25 71 7 82 49 18 73 33 73 46 0 14 -84 283 -101 323 -8 18 -6
42 7 90 9 36 21 70 25 75 4 5 72 -4 153 -19 117 -22 146 -31 146 -44 0 -9 -20
-115 -45 -236 -104 -508 -175 -867 -175 -885 0 -17 7 -20 44 -20 51 0 55 4 72
74 11 48 47 185 109 421 66 253 119 457 139 535 20 78 24 85 48 88 25 3 27 1
34 -55 4 -32 2 -143 -4 -248 -6 -104 -9 -191 -7 -194 2 -2 39 -16 81 -31 l77
-27 19 -73 c48 -184 87 -219 245 -220 103 0 164 17 201 57 19 21 22 35 22 111
0 52 4 82 9 76 5 -5 46 -90 91 -189 45 -99 87 -185 93 -192 12 -12 80 -4 94
11 3 3 -12 52 -35 108 -22 57 -60 155 -85 218 -139 355 -183 467 -228 578 -27
68 -49 132 -49 142 0 11 24 32 70 59 l70 42 0 70 c0 68 -1 69 -21 59 -25 -14
-33 -8 -24 19 4 15 21 23 63 32 85 17 156 46 182 74 22 24 23 27 11 82 -7 31
-21 81 -31 112 -10 31 -32 103 -50 161 -17 58 -36 119 -42 136 -9 26 -7 39 16
86 17 34 30 82 34 126 7 60 13 76 42 110 19 23 46 44 60 47 14 3 41 10 60 15
32 8 153 33 325 66 39 7 124 25 190 39 66 14 154 32 195 40 41 8 95 19 120 25
90 19 90 18 90 -55 0 -44 -4 -67 -12 -69 -7 -2 -54 -11 -105 -21 -151 -28
-225 -57 -241 -94 -28 -65 -35 -90 -41 -145 l-6 -59 -55 -21 c-86 -32 -125
-60 -144 -101 -19 -39 -17 -104 3 -142 13 -25 73 -171 111 -273 18 -47 40
-103 50 -125 43 -101 43 -103 36 -233 -9 -172 -24 -343 -30 -350 -25 -25 -234
281 -272 399 -20 60 -9 90 37 110 30 12 168 8 202 -6 12 -5 17 -3 17 8 0 16
-18 22 -97 33 -181 23 -239 -62 -155 -227 122 -238 277 -403 425 -453 49 -16
140 -21 196 -10 36 8 77 45 83 77 8 41 -3 97 -19 97 -12 0 -13 -8 -8 -40 9
-52 0 -77 -35 -95 -36 -18 -163 -20 -211 -3 l-34 12 30 6 c28 5 31 10 53 95
12 50 33 135 46 189 12 55 27 101 32 103 5 2 27 -44 49 -102 22 -58 45 -105
52 -105 15 0 17 14 3 38 -5 9 -32 80 -60 157 l-52 140 22 85 c51 198 74 276
82 287 6 7 20 8 41 3 18 -4 81 -16 141 -26 60 -10 110 -24 113 -29 3 -10 -30
-183 -173 -886 -26 -130 -45 -243 -41 -252 7 -18 61 -24 84 -9 7 4 28 69 48
145 80 312 105 408 135 522 31 117 62 238 94 360 9 33 18 67 21 75 4 14 19 16
93 12 48 -2 88 -6 90 -7 5 -4 65 -290 96 -456 12 -66 30 -103 112 -230 l42
-67 53 10 c82 15 89 21 78 65 -5 21 -13 56 -18 78 -37 166 -86 369 -99 410
-34 100 -52 215 -34 215 9 0 72 -121 87 -169 5 -18 2 -21 -20 -21 -36 0 -27
-22 12 -32 39 -10 39 -10 105 -158 53 -118 56 -132 68 -251 9 -104 9 -130 -2
-148 -22 -35 -76 -54 -168 -59 -148 -7 -188 21 -229 156 -19 61 -50 214 -66
319 -4 24 -11 43 -16 43 -12 0 -11 -67 2 -132 64 -316 95 -385 183 -407 105
-26 250 -4 300 46 29 29 29 29 27 138 l-2 80 56 -120 c77 -164 95 -203 117
-254 l18 -44 46 6 c25 2 48 7 51 11 6 6 -7 43 -117 321 -39 99 -96 245 -127
325 -30 80 -61 159 -69 175 -13 30 -94 237 -94 241 0 1 26 17 58 35 90 51 92
54 92 126 0 34 -1 63 -3 63 -2 0 -39 -20 -83 -45 -81 -47 -111 -56 -97 -31 15
26 73 86 84 86 6 0 7 5 4 11 -4 5 1 38 12 71 14 49 24 65 50 81 l33 19 0 204
c0 120 4 204 9 204 13 0 272 -183 293 -207 16 -19 68 -138 120 -278 16 -43 36
-94 45 -113 13 -27 15 -52 10 -125 -4 -51 -11 -157 -17 -236 -5 -79 -13 -147
-16 -150 -3 -3 -28 19 -55 49 -96 107 -213 303 -225 377 -6 37 -3 45 21 69
l27 27 111 -6 c103 -6 110 -6 95 9 -13 13 -39 17 -116 18 -87 1 -104 -2 -129
-20 -24 -18 -28 -29 -31 -73 -2 -42 3 -66 28 -119 37 -80 141 -238 201 -305
99 -113 224 -177 346 -177 116 0 167 39 161 126 -2 28 -8 49 -16 52 -11 3 -12
-6 -7 -42 7 -42 5 -48 -23 -76 -29 -28 -35 -30 -109 -30 -43 0 -96 7 -118 15
l-40 14 32 1 c36 0 33 -7 79 185 38 158 50 199 60 202 5 2 25 -43 45 -99 19
-56 41 -104 47 -106 20 -6 14 20 -29 134 -76 202 -75 197 -55 272 10 37 19 69
22 71 3 4 50 -24 71 -43 6 -6 57 -42 112 -81 55 -38 101 -76 101 -84 0 -11
-125 -646 -146 -739 -4 -22 -2 -23 48 -20 l53 3 11 45 c7 25 26 99 43 165 18
66 48 181 67 255 57 219 46 200 115 200 l59 0 0 219 c0 121 3 221 8 223 4 2
43 2 86 -1 89 -7 84 -1 106 -111 63 -314 83 -409 93 -431 22 -48 122 -208 132
-212 21 -8 135 26 135 40 0 8 -19 94 -41 191 -23 97 -47 202 -54 232 -7 30
-19 73 -28 95 -14 36 -37 142 -40 189 -5 60 51 -27 101 -155 2 -5 -8 -9 -22
-9 -35 0 -42 -18 -9 -26 15 -3 34 -7 41 -10 12 -4 77 -134 126 -257 21 -53 33
-281 16 -302 -32 -38 -72 -50 -181 -50 -125 0 -150 10 -179 70 -34 69 -77 247
-95 393 -8 62 -31 68 -27 6 5 -67 43 -256 68 -334 33 -105 69 -145 142 -161
113 -23 261 9 298 66 14 22 16 40 10 110 -3 47 -4 85 -1 85 3 0 23 -39 45 -87
23 -49 65 -140 94 -203 l53 -115 42 1 c56 1 67 13 47 55 -15 35 -114 285 -192
489 -24 63 -49 124 -54 135 -5 11 -34 85 -65 165 -31 80 -63 162 -72 183 -9
20 -13 41 -9 45 4 4 38 25 74 48 l67 41 3 66 c2 38 -1 67 -7 67 -5 0 -42 -20
-82 -45 -109 -67 -128 -61 -54 19 25 27 45 56 45 64 0 9 7 39 16 67 13 41 24
56 50 70 l34 18 0 252 c0 138 -3 254 -6 258 -4 3 -24 -3 -46 -14 -55 -28 -63
-22 -59 42 3 63 7 69 58 79 38 8 213 43 268 55 17 3 53 10 80 16 28 5 68 13
90 19 22 5 77 17 123 26 l82 18 0 68 c0 66 -1 69 -27 79 -16 6 -59 25 -98 43
-38 19 -92 44 -120 56 -33 15 -71 45 -113 91 -35 38 -88 83 -118 101 -30 18
-54 36 -54 40 0 3 11 29 25 56 60 120 61 297 1 472 -36 104 -36 106 -25 189 7
48 9 148 6 230 -5 160 -15 197 -80 313 -146 259 -359 372 -642 340 -115 -12
-251 -55 -333 -104 -127 -77 -245 -246 -289 -413 -27 -103 -24 -306 5 -397 24
-77 54 -139 89 -186 13 -17 19 -32 14 -32 -6 0 -48 17 -93 39 -46 21 -105 49
-133 61 -27 12 -79 36 -115 52 -36 17 -90 42 -120 55 -216 99 -215 98 -248
149 -42 66 -77 99 -135 124 -55 25 -105 27 -164 10 -37 -11 -46 -11 -60 2 -25
21 -69 27 -126 19 -34 -6 -55 -4 -75 7 -57 30 -198 10 -269 -38 -24 -17 -49
-30 -55 -30 -6 0 -26 14 -45 30 -48 42 -117 35 -177 -17 -15 -13 -29 -23 -34
-23 -9 0 -85 198 -78 208 2 4 50 25 106 47 57 22 105 45 107 51 2 7 -9 51 -25
98 l-28 87 55 92 c31 51 69 120 85 154 l28 60 132 11 c72 7 259 18 416 27 157
8 350 20 430 25 80 5 204 12 275 15 72 3 191 10 265 15 74 6 257 17 405 25
149 8 304 17 345 20 41 3 199 12 350 20 151 9 343 19 425 25 343 22 739 41
751 36 10 -4 14 -26 14 -80 0 -88 -2 -86 126 -141 42 -18 81 -38 87 -44 11
-11 -5 -174 -23 -229 -5 -15 -19 -61 -31 -102 -22 -75 -80 -221 -118 -295 -19
-37 -19 -41 -3 -53 9 -8 34 -20 55 -29 42 -17 42 -18 21 -98 -8 -33 -35 -136
-59 -230 -24 -93 -65 -250 -90 -349 -28 -107 -43 -182 -37 -188 25 -25 363
-126 482 -144 84 -13 71 18 155 -374 25 -118 48 -223 51 -232 11 -37 -113
-118 -247 -161 -43 -14 -136 -32 -213 -41 -151 -17 -187 -31 -210 -81 -19 -41
-28 -138 -16 -169 13 -35 59 -56 159 -72 47 -8 89 -14 94 -14 4 0 7 -27 7 -60
0 -70 16 -90 94 -117 73 -25 360 -22 551 6 140 20 319 59 343 74 9 6 12 140
12 611 l0 603 108 27 c181 44 319 104 481 211 64 43 72 51 68 74 -2 14 -30 98
-62 186 -31 88 -60 171 -65 185 -5 14 -34 97 -65 185 -82 233 -78 210 -43 240
35 30 35 36 -10 166 -17 47 -40 126 -51 175 -12 49 -26 105 -31 124 -4 19 -14
67 -20 106 l-13 71 67 66 c77 77 76 64 13 221 -42 106 -82 185 -131 256 -28
41 -31 56 -43 184 -7 77 -15 142 -18 144 -3 3 -29 -6 -57 -21 -69 -34 -155
-67 -175 -67 -25 0 -9 99 31 185 35 76 107 165 134 165 8 0 44 -11 78 -25 66
-27 197 -55 253 -55 50 0 149 27 211 58 64 31 182 139 200 182 11 27 9 34 -29
92 -37 57 -60 108 -102 233 -11 30 -14 114 -14 345 -1 330 -3 345 -57 426 -28
42 -112 104 -141 104 -9 0 -18 4 -21 9 -3 5 -27 12 -53 15 -27 4 -75 11 -108
16 -315 49 -370 65 -435 126 -58 54 -95 70 -185 79 -233 22 -438 -104 -585
-361 -24 -42 -44 -86 -44 -98 -1 -16 22 -35 104 -83 106 -63 123 -83 98 -114
-11 -14 -23 -15 -83 -6 -55 8 -81 7 -120 -5 l-50 -14 0 -54 c0 -101 60 -186
148 -212 23 -7 45 -17 49 -23 11 -15 -19 -33 -68 -41 -59 -8 -79 -34 -78 -97
0 -43 5 -54 33 -79 29 -26 38 -29 72 -23 l39 7 0 -68 c0 -141 53 -509 96 -661
8 -30 1 -29 -95 9 -45 17 -82 29 -84 27 -1 -2 -14 -26 -29 -53 -17 -33 -33
-50 -46 -51 -22 -2 -54 -37 -112 -119 -23 -32 -46 -53 -65 -58 -56 -16 -188
-38 -196 -32 -5 3 -9 635 -9 1425 l0 1419 -217 -2 c-120 -1 -436 -5 -703 -9z
m1474 -1318 c39 -8 42 -23 10 -60 -20 -25 -25 -38 -20 -61 3 -17 9 -42 12 -57
3 -16 0 -36 -8 -46 -12 -16 -17 -16 -50 -5 -73 26 -123 96 -130 182 -3 35 0
41 22 47 31 9 125 9 164 0z m1366 -375 c0 -2 -7 -7 -16 -10 -8 -3 -12 -2 -9 4
6 10 25 14 25 6z m-106 -91 c-4 -8 -11 -15 -16 -15 -6 0 -5 6 2 15 7 8 14 15
16 15 2 0 1 -7 -2 -15z m236 -389 c0 -2 -7 -7 -16 -10 -8 -3 -12 -2 -9 4 6 10
25 14 25 6z m-5970 -1162 c0 -8 -60 -94 -66 -94 -9 0 -113 75 -114 82 0 7 50
13 133 16 26 1 47 -1 47 -4z m-211 -18 c-2 -2 -25 -15 -50 -30 l-47 -25 -14
21 c-16 23 -6 25 -128 -21 -71 -27 -72 -27 -68 12 3 30 6 32 48 38 51 7 265
11 259 5z m-769 -50 c0 -9 -7 -12 -20 -9 -11 3 -20 9 -20 14 0 5 9 9 20 9 11
0 20 -6 20 -14z m-210 -10 c0 -8 -15 -15 -38 -19 -105 -14 -202 -137 -291
-368 l-33 -87 23 -32 c13 -17 45 -48 72 -67 51 -38 52 -41 37 -93 -14 -45 -44
-185 -60 -277 -7 -40 -14 -73 -14 -73 -1 0 -39 -7 -86 -15 -125 -23 -170 -28
-170 -22 0 3 10 23 22 44 30 50 32 176 5 242 -13 31 -15 47 -8 54 6 6 11 17
11 25 0 31 -83 223 -127 292 -40 65 -47 83 -49 132 -1 33 -8 68 -18 82 -24 37
-78 75 -137 96 l-54 19 -34 -42 c-65 -78 -160 -169 -170 -162 -15 9 -12 142 3
185 11 31 17 35 52 37 21 2 109 7 194 13 85 6 247 15 360 21 113 6 255 15 315
19 184 12 195 11 195 -4z m-3680 -1241 c-28 -168 -53 -312 -55 -318 -2 -7 -6
-24 -9 -38 -5 -23 -13 -28 -68 -38 -95 -19 -160 -32 -187 -37 -24 -5 -24 -5
-17 58 9 77 42 265 59 333 13 54 11 53 93 40 l41 -7 17 63 c27 99 90 222 133
260 36 31 38 32 41 12 2 -12 -20 -159 -48 -328z m802 250 c33 -34 118 -187
118 -214 0 -6 6 -11 13 -11 15 0 31 -45 47 -131 6 -30 13 -61 15 -70 4 -12 -7
-18 -47 -27 -114 -25 -212 -41 -217 -37 -7 8 -15 511 -7 530 7 20 28 10 78
-40z m6898 -605 c0 -5 -7 -7 -15 -4 -8 4 -15 8 -15 10 0 2 7 4 15 4 8 0 15 -4
15 -10z m-2735 -1262 c-12 -65 -14 -66 -111 -41 -48 13 -94 28 -102 35 -13 11
-9 14 24 19 21 4 71 14 109 22 39 8 74 11 78 7 5 -4 5 -23 2 -42z m-2932 -587
c-57 -51 -144 -66 -235 -40 -47 12 -49 25 -5 32 82 14 190 36 195 41 3 3 24 6
46 6 l41 -1 -42 -38z m2412 -113 c14 -6 25 -15 25 -19 0 -9 -86 -49 -106 -49
-22 0 -16 29 11 55 27 28 34 30 70 13z m55 -213 c0 -32 -22 -115 -31 -115 -5
0 -14 12 -19 28 -6 15 -15 35 -20 44 -22 39 -10 56 43 57 17 1 27 -4 27 -14z
m-1100 -1021 c24 -64 44 -287 29 -315 -21 -40 -88 -62 -184 -63 -144 -1 -166
15 -210 150 -35 108 -34 118 12 111 59 -10 174 12 244 46 l64 32 -2 65 c-1 59
0 63 13 46 8 -11 23 -44 34 -72z"/>
</g>
</svg>
